<svg width="24" height="16" viewBox="0 0 24 16" fill="none" xmlns="http://www.w3.org/2000/svg">
<path d="M24 8.5L3.0598e-07 8.5L3.60619e-07 7.25L24 7.25L24 8.5ZM0.483517 7.37521C2.40795 7.32457 5.28625 6.8966 7.65966 5.79983C10.0363 4.70156 11.75 3.01932 11.75 0.499996L13 0.499996C13 3.73067 10.7553 5.74635 8.18401 6.93454C5.60951 8.12423 2.5503 8.57126 0.5164 8.62478L0.483517 7.37521ZM0.5164 7.37521C2.5503 7.42874 5.60951 7.87577 8.18401 9.06546C10.7553 10.2536 13 12.2693 13 15.5L11.75 15.5C11.75 12.9807 10.0363 11.2984 7.65966 10.2002C5.28625 9.1034 2.40795 8.67542 0.483517 8.62478L0.5164 7.37521Z" fill="#ADADAD"/>
</svg>
