<svg width="24" height="16" viewBox="0 0 24 16" fill="none" xmlns="http://www.w3.org/2000/svg">
<path d="M-2.7866e-07 8.5L24 8.5L24 7.25L-3.87939e-07 7.25L-2.7866e-07 8.5ZM23.5165 7.37521C21.5921 7.32457 18.7138 6.8966 16.3403 5.79983C13.9637 4.70156 12.25 3.01932 12.25 0.499996L11 0.499996C11 3.73067 13.2447 5.74635 15.816 6.93454C18.3905 8.12423 21.4497 8.57126 23.4836 8.62478L23.5165 7.37521ZM23.4836 7.37521C21.4497 7.42874 18.3905 7.87577 15.816 9.06546C13.2447 10.2536 11 12.2693 11 15.5L12.25 15.5C12.25 12.9807 13.9637 11.2984 16.3403 10.2002C18.7138 9.1034 21.5921 8.67542 23.5165 8.62478L23.4836 7.37521Z" fill="#ADADAD"/>
</svg>
